<svg width="28" height="28" viewBox="0 0 28 28" fill="none" xmlns="http://www.w3.org/2000/svg">
<path d="M25.7206 21.6595C27.1619 19.4587 28 16.8273 28 14C28 6.26787 21.7321 0 14 0C6.26787 0 0 6.26787 0 14C0 16.8273 0.838125 19.4587 2.27943 21.6595C5.67109 19.5148 9.6904 18.2735 14 18.2735C18.3096 18.2735 22.3289 19.5152 25.7206 21.6595Z" fill="white" fill-opacity="0.3"/>
<path d="M14 28C18.9049 28 23.2205 25.4777 25.7206 21.6595C22.3289 19.5148 18.3096 18.2735 14 18.2735C9.69038 18.2735 5.67108 19.5148 2.27942 21.6595C4.77986 25.4777 9.09511 28 14 28Z" fill="white" fill-opacity="0.6"/>
<path d="M20.5962 9.22617C20.3096 7.08642 19.2524 5.4354 17.418 4.29869C16.5309 3.74898 15.558 3.43421 14.509 3.37736C14.2971 3.33858 14.0817 3.35477 13.8682 3.34084C13.8181 3.34197 13.7681 3.34309 13.7176 3.34422C13.6302 3.35138 13.5429 3.35853 13.4555 3.36606C13.2507 3.39468 13.0451 3.41689 12.8414 3.45266C9.03638 4.11797 6.7001 7.86845 7.52467 11.3309C7.85299 12.7097 8.3579 14.023 8.92757 15.3152C9.48933 16.5897 10.1354 17.8217 10.8132 19.0378C10.8591 19.1124 10.9065 19.1854 10.9506 19.2611C11.4013 20.0344 11.8734 20.7939 12.3998 21.5187C12.7383 21.9848 13.0839 22.4464 13.5252 22.8233C13.657 22.9359 13.7918 23.0541 13.9808 23.0631C14.1867 23.079 14.3381 22.96 14.4853 22.8455C14.91 22.5153 15.2395 22.0955 15.561 21.67C16.2124 20.8086 16.7629 19.8823 17.3065 18.9516C17.488 18.615 17.6737 18.2806 17.8499 17.9414C18.848 16.0189 19.7437 14.0539 20.3213 11.9578C20.5676 11.0632 20.7208 10.1573 20.5962 9.22617ZM14.4661 13.1702C14.3053 13.1924 14.1419 13.1988 13.98 13.2123C13.9552 13.2082 13.9307 13.2041 13.9059 13.2003C12.657 13.2346 11.3693 12.3268 10.8952 11.0775C10.1136 9.0187 11.5123 6.77843 13.6995 6.58641C13.7681 6.58038 13.8373 6.58453 13.9059 6.58415C13.9307 6.58001 13.9552 6.57624 13.98 6.5721C15.0968 6.60072 16.0091 7.04199 16.6759 7.94337C18.1533 9.94042 16.9278 12.8328 14.4661 13.1702Z" fill="white"/>
</svg>
