<svg width="32" height="32" viewBox="0 0 32 32" fill="none" xmlns="http://www.w3.org/2000/svg">
<path d="M16 16V4" stroke="white" stroke-width="2" stroke-linecap="round" stroke-linejoin="round"/>
<path d="M26.3925 10L5.60791 22" stroke="white" stroke-width="2" stroke-linecap="round" stroke-linejoin="round"/>
<path d="M4.20011 18.1938C3.68055 15.3821 4.18043 12.4772 5.60999 10.0009C7.03954 7.52459 9.30511 5.63905 11.9998 4.68289V13.6906L4.20011 18.1938Z" stroke="white" stroke-width="2" stroke-linecap="round" stroke-linejoin="round"/>
<path d="M15.9998 4C18.1022 4.00039 20.1676 4.55313 21.9892 5.60288C23.8108 6.65263 25.3246 8.16254 26.3791 9.9814C27.4336 11.8003 27.9917 13.8643 27.9975 15.9667C28.0033 18.0691 27.4567 20.1361 26.4124 21.9608C25.368 23.7855 23.8626 25.3038 22.0469 26.3637C20.2311 27.4235 18.1688 27.9877 16.0664 27.9998C13.9641 28.0119 11.8954 27.4714 10.0676 26.4324C8.23983 25.3935 6.71708 23.8926 5.65186 22.08" stroke="white" stroke-width="2" stroke-linecap="round" stroke-linejoin="round"/>
</svg>
