<svg width="12" height="12" viewBox="0 0 12 12" fill="none" xmlns="http://www.w3.org/2000/svg">
<path d="M5.8125 0.1875C2.60257 0.1875 0 2.79101 0 6C0 9.21087 2.60257 11.8125 5.8125 11.8125C9.02243 11.8125 11.625 9.21087 11.625 6C11.625 2.79101 9.02243 0.1875 5.8125 0.1875ZM5.8125 2.76562C6.35616 2.76562 6.79688 3.20634 6.79688 3.75C6.79688 4.29366 6.35616 4.73438 5.8125 4.73438C5.26884 4.73438 4.82812 4.29366 4.82812 3.75C4.82812 3.20634 5.26884 2.76562 5.8125 2.76562ZM7.125 8.71875C7.125 8.87407 6.99907 9 6.84375 9H4.78125C4.62593 9 4.5 8.87407 4.5 8.71875V8.15625C4.5 8.00093 4.62593 7.875 4.78125 7.875H5.0625V6.375H4.78125C4.62593 6.375 4.5 6.24907 4.5 6.09375V5.53125C4.5 5.37593 4.62593 5.25 4.78125 5.25H6.28125C6.43657 5.25 6.5625 5.37593 6.5625 5.53125V7.875H6.84375C6.99907 7.875 7.125 8.00093 7.125 8.15625V8.71875Z" fill="#268597"/>
</svg>
