<svg width="12" height="12" viewBox="0 0 12 12" fill="none" xmlns="http://www.w3.org/2000/svg">
<path d="M11.3322 3.23263L10.2829 4.28191C10.1759 4.38889 10.0029 4.38889 9.89594 4.28191L7.36947 1.75544C7.26249 1.64846 7.26249 1.47548 7.36947 1.3685L8.41875 0.319223C8.84438 -0.106408 9.53632 -0.106408 9.96422 0.319223L11.3322 1.68716C11.7601 2.11279 11.7601 2.80472 11.3322 3.23263ZM6.46814 2.26984L0.491098 8.24688L0.00856507 11.0123C-0.0574418 11.3856 0.26804 11.7088 0.641321 11.6451L3.40678 11.1603L9.38382 5.18325C9.4908 5.07627 9.4908 4.90329 9.38382 4.79631L6.85735 2.26984C6.7481 2.16286 6.57511 2.16286 6.46814 2.26984ZM2.8241 7.73475C2.69891 7.60957 2.69891 7.40927 2.8241 7.28409L6.32929 3.77889C6.45448 3.65371 6.65478 3.65371 6.77996 3.77889C6.90515 3.90408 6.90515 4.10438 6.77996 4.22956L3.27477 7.73475C3.14958 7.85994 2.94929 7.85994 2.8241 7.73475ZM2.00243 9.64895H3.09496V10.4752L1.62687 10.7324L0.919005 10.0245L1.1762 8.55643H2.00243V9.64895Z" fill="#268597"/>
</svg>
