<svg width="14" height="14" viewBox="0 0 14 14" fill="none" xmlns="http://www.w3.org/2000/svg">
<path d="M7 0C3.14005 0 0 3.14005 0 7C0 10.86 3.14005 14 7 14C10.86 14 14 10.86 14 7C14 3.14005 10.86 0 7 0Z" fill="#F44336"/>
<path d="M9.81334 8.91318C10.0622 9.16218 10.0622 9.56448 9.81334 9.81348C9.68919 9.93763 9.52622 10 9.36314 10C9.20017 10 9.03721 9.93763 8.91306 9.81348L7 7.90026L5.08694 9.81348C4.96279 9.93763 4.79983 10 4.63686 10C4.47378 10 4.31081 9.93763 4.18666 9.81348C3.93778 9.56448 3.93778 9.16218 4.18666 8.91318L6.09983 7.00007L4.18666 5.08697C3.93778 4.83797 3.93778 4.43567 4.18666 4.18666C4.43566 3.93778 4.83795 3.93778 5.08694 4.18666L7 6.09989L8.91306 4.18666C9.16205 3.93778 9.56434 3.93778 9.81334 4.18666C10.0622 4.43567 10.0622 4.83797 9.81334 5.08697L7.90017 7.00007L9.81334 8.91318Z" fill="#FAFAFA"/>
</svg>
